<?xml version="1.0" encoding="UTF-8"?><svg xmlns="http://www.w3.org/2000/svg" viewBox="0 0 591.35 151.29"><defs><style>.d{fill:#bf3641;}.e{fill:#400101;}</style></defs><g id="a"/><g id="b"><g id="c"><g><g><path class="e" d="M12.7,28.93c.91-4.95,2.83-8.67,5.76-11.18,2.93-2.51,7.23-3.76,12.89-3.76s9.73,1.24,12.21,3.71c2.47,2.48,3.29,6.22,2.44,11.23l-9.86,57.03c-.39,2.21-.75,4.2-1.07,5.96-.33,1.76-.59,3.39-.78,4.88-.2,1.5-.34,2.88-.44,4.15s-.15,2.56-.15,3.86c0,3.52,.44,6.53,1.32,9.03,.88,2.51,2.13,4.56,3.76,6.15,1.63,1.6,3.55,2.75,5.76,3.47,2.21,.72,4.65,1.07,7.32,1.07,3.25,0,6.33-.55,9.23-1.66,2.9-1.11,5.55-2.83,7.96-5.18,2.41-2.34,4.49-5.32,6.25-8.94s3.06-7.89,3.91-12.84l11.52-66.99c.85-4.95,2.75-8.67,5.71-11.18,2.96-2.51,7.28-3.76,12.94-3.76s9.73,1.24,12.21,3.71c2.47,2.48,3.29,6.22,2.44,11.23l-11.62,66.7c-1.63,9.38-4.22,17.55-7.76,24.51-3.55,6.97-8.04,12.76-13.48,17.38-5.44,4.62-11.8,8.07-19.09,10.35-7.29,2.28-15.5,3.42-24.61,3.42-7.62,0-14.37-.9-20.26-2.69-5.89-1.79-10.86-4.44-14.89-7.96-4.04-3.52-7.1-7.88-9.18-13.09-2.08-5.21-3.12-11.26-3.12-18.16,0-3.25,.26-6.79,.78-10.6,.52-3.81,1.2-8.25,2.05-13.33L12.7,28.93Z"/><path class="e" d="M155.54,34.49c.98-3.58,2.23-6.67,3.76-9.28,1.53-2.6,3.45-4.74,5.76-6.4,2.31-1.66,5.04-2.88,8.2-3.66,3.16-.78,6.85-1.17,11.08-1.17,3.97,0,7.35,.44,10.15,1.32,2.8,.88,5.09,2.13,6.88,3.76,1.79,1.63,3.12,3.66,4,6.1s1.48,5.19,1.81,8.25l6.05,63.18c.2,2.34,.36,4.64,.49,6.88,.13,2.25,.23,4.22,.29,5.91,.06,2.08,.1,4,.1,5.76h.29c.65-1.76,1.37-3.68,2.15-5.76,.65-1.69,1.4-3.65,2.25-5.86,.85-2.21,1.76-4.49,2.73-6.84l28.03-63.18c1.37-3.25,2.88-6.1,4.55-8.54s3.6-4.48,5.82-6.1c2.22-1.63,4.81-2.85,7.77-3.66,2.97-.81,6.4-1.22,10.31-1.22,4.69,0,8.54,.47,11.54,1.42,3,.94,5.44,2.36,7.33,4.25,2.8,2.87,4.2,7.03,4.2,12.5v.98c0,.33-.02,.77-.05,1.32-.03,.55-.07,1.24-.1,2.05-.03,.81-.08,1.9-.15,3.27l-6.36,94.24c-.07,1.17-.15,2.28-.24,3.32-.1,1.04-.26,2.05-.49,3.03-.23,.98-.57,1.9-1.03,2.78-.46,.88-1.07,1.71-1.86,2.49-1.43,1.43-3.34,2.56-5.71,3.37-2.38,.81-4.87,1.22-7.47,1.22-4.95,0-8.92-1.03-11.91-3.08-3-2.05-4.49-5.03-4.49-8.94,0-.78,.03-1.59,.1-2.44,.06-.85,.16-1.92,.29-3.22l6.02-64.84c.26-2.6,.55-5.11,.87-7.52,.32-2.41,.65-4.56,.97-6.45,.39-2.21,.78-4.3,1.17-6.25h-.39l-34.67,79.2c-1.69,4.1-3.29,7.54-4.79,10.3-1.5,2.77-3.12,5.03-4.88,6.79-.91,.91-1.89,1.74-2.93,2.49-1.04,.75-2.25,1.4-3.61,1.95-1.37,.55-2.95,.98-4.74,1.27-1.79,.29-3.83,.44-6.1,.44-3.39,0-6.27-.41-8.64-1.22-2.38-.81-4.35-2.03-5.91-3.66-1.63-1.56-2.85-3.81-3.66-6.74-.81-2.93-1.42-6.8-1.81-11.62l-7.23-79.39h-.39c-.39,1.95-.78,4-1.17,6.15-.39,1.89-.83,4.04-1.32,6.45-.49,2.41-1.09,4.98-1.8,7.71l-16.47,67.19c-.65,2.93-1.27,5.21-1.86,6.84-.59,1.63-1.43,3-2.54,4.1-1.24,1.37-2.88,2.44-4.93,3.22s-4.48,1.17-7.28,1.17c-4.95,0-8.92-1.04-11.91-3.12-3-2.08-4.49-4.92-4.49-8.5,0-.78,.1-1.59,.29-2.44,.2-.85,.49-1.99,.88-3.42l27.22-98.14Z"/><path class="e" d="M352.34,123.56h39.65c3.19,0,5.62,.89,7.28,2.68s2.49,4.52,2.49,8.22c0,2.33-.31,4.41-.93,6.23-.62,1.82-1.51,3.36-2.69,4.62-1.17,1.27-2.56,2.24-4.15,2.92-1.6,.68-3.31,1.02-5.13,1.02h-59.67c-4.04,0-7.11-.94-9.23-2.83-2.12-1.89-3.17-4.62-3.17-8.2,0-.72,.03-1.4,.1-2.05,.06-.65,.16-1.37,.29-2.15l18.26-105.47c.85-4.82,2.55-8.33,5.13-10.55,2.57-2.21,6.23-3.32,10.99-3.32h58.98c3.12,0,5.52,.89,7.18,2.68s2.49,4.52,2.49,8.22c0,2.33-.33,4.41-.98,6.23-.65,1.82-1.55,3.36-2.69,4.62-1.14,1.27-2.51,2.24-4.1,2.92-1.6,.68-3.31,1.02-5.13,1.02h-40.62l-4.79,27.83h33.2c3.12,0,5.5,.86,7.13,2.59,1.63,1.73,2.44,4.48,2.44,8.25,0,2.28-.33,4.31-.98,6.1-.65,1.79-1.55,3.32-2.69,4.59-1.14,1.27-2.48,2.23-4,2.88-1.53,.65-3.21,.98-5.03,.98h-34.47l-5.18,29.98Z"/></g><path class="d" d="M591.33,56.19c-.27-3.56-2.9-6.04-6.6-6.2l-44.44-2.03-5.32-42.13c-.44-3.51-3.22-5.83-6.96-5.83s-7.68,2.32-9.87,5.83l-26.33,42.13-45.46,2.03c-3.79,.17-7.65,2.64-9.7,6.2-2.05,3.56-1.85,7.47,.5,9.81l28.17,28.07-22.77,43.38c-1.89,3.61-1.51,7.46,.97,9.66,2.49,2.2,6.54,2.29,10.18,.23l43.74-24.78,31.38,24.78c2.62,2.06,6.72,1.97,10.3-.23,3.58-2.2,5.89-6.05,5.79-9.66l-1.14-43.38,42.17-28.07c3.51-2.34,5.66-6.25,5.39-9.81Z"/></g></g></g></svg>